<svg width="24" height="24" viewBox="0 0 24 24" fill="none" xmlns="http://www.w3.org/2000/svg">
<path d="M10.95 15.45L14.425 11.975C14.625 11.775 14.8667 11.675 15.15 11.675C15.4333 11.675 15.675 11.775 15.875 11.975C16.075 12.175 16.175 12.4167 16.175 12.7C16.175 12.9833 16.075 13.225 15.875 13.425L11.65 17.65C11.45 17.85 11.2167 17.95 10.95 17.95C10.6833 17.95 10.45 17.85 10.25 17.65L8.125 15.525C7.925 15.325 7.825 15.0833 7.825 14.8C7.825 14.5167 7.925 14.275 8.125 14.075C8.325 13.875 8.56667 13.775 8.85 13.775C9.13333 13.775 9.375 13.875 9.575 14.075L10.95 15.45ZM5 22C4.45 22 3.97933 21.8043 3.588 21.413C3.19667 21.0217 3.00067 20.5507 3 20V6C3 5.45 3.196 4.97934 3.588 4.588C3.98 4.19667 4.45067 4.00067 5 4H6V3C6 2.71667 6.096 2.47934 6.288 2.288C6.48 2.09667 6.71733 2.00067 7 2C7.28267 1.99934 7.52033 2.09534 7.713 2.288C7.90567 2.48067 8.00133 2.718 8 3V4H16V3C16 2.71667 16.096 2.47934 16.288 2.288C16.48 2.09667 16.7173 2.00067 17 2C17.2827 1.99934 17.5203 2.09534 17.713 2.288C17.9057 2.48067 18.0013 2.718 18 3V4H19C19.55 4 20.021 4.196 20.413 4.588C20.805 4.98 21.0007 5.45067 21 6V20C21 20.55 20.8043 21.021 20.413 21.413C20.0217 21.805 19.5507 22.0007 19 22H5ZM5 20H19V10H5V20Z" fill="#5E7EF3"/>
</svg>
