<svg width="24" height="24" viewBox="0 0 24 24" fill="none" xmlns="http://www.w3.org/2000/svg">
<path d="M5 21C4.71667 21 4.47933 20.904 4.288 20.712C4.09667 20.52 4.00067 20.2827 4 20V19C3.16667 19 2.45833 18.7083 1.875 18.125C1.29167 17.5417 1 16.8333 1 16V11C1 10.1667 1.29167 9.45833 1.875 8.875C2.45833 8.29167 3.16667 8 4 8V6C4 5.16667 4.29167 4.45833 4.875 3.875C5.45833 3.29167 6.16667 3 7 3H17C17.8333 3 18.5417 3.29167 19.125 3.875C19.7083 4.45833 20 5.16667 20 6V8C20.8333 8 21.5417 8.29167 22.125 8.875C22.7083 9.45833 23 10.1667 23 11V16C23 16.8333 22.7083 17.5417 22.125 18.125C21.5417 18.7083 20.8333 19 20 19V20C20 20.2833 19.904 20.521 19.712 20.713C19.52 20.905 19.2827 21.0007 19 21C18.7173 20.9993 18.48 20.9033 18.288 20.712C18.096 20.5207 18 20.2833 18 20V19H6V20C6 20.2833 5.904 20.521 5.712 20.713C5.52 20.905 5.28267 21.0007 5 21ZM4 17H20C20.2833 17 20.521 16.904 20.713 16.712C20.905 16.52 21.0007 16.2827 21 16V11C21 10.7167 20.904 10.4793 20.712 10.288C20.52 10.0967 20.2827 10.0007 20 10C19.7173 9.99933 19.48 10.0953 19.288 10.288C19.096 10.4807 19 10.718 19 11V15H5V11C5 10.7167 4.904 10.4793 4.712 10.288C4.52 10.0967 4.28267 10.0007 4 10C3.71733 9.99933 3.48 10.0953 3.288 10.288C3.096 10.4807 3 10.718 3 11V16C3 16.2833 3.096 16.521 3.288 16.713C3.48 16.905 3.71733 17.0007 4 17ZM7 13H17V11C17 10.55 17.0917 10.1417 17.275 9.775C17.4583 9.40833 17.7 9.08333 18 8.8V6C18 5.71667 17.904 5.47933 17.712 5.288C17.52 5.09667 17.2827 5.00067 17 5H7C6.71667 5 6.47933 5.096 6.288 5.288C6.09667 5.48 6.00067 5.71733 6 6V8.8C6.3 9.08333 6.54167 9.40833 6.725 9.775C6.90833 10.1417 7 10.55 7 11V13Z" fill="#121212"/>
</svg>
