<svg width="24" height="24" viewBox="0 0 24 24" fill="none" xmlns="http://www.w3.org/2000/svg">
<path d="M2 19C1.71667 19 1.47933 18.904 1.288 18.712C1.09667 18.52 1.00067 18.2827 1 18V5C1 4.71667 1.096 4.47934 1.288 4.288C1.48 4.09667 1.71733 4.00067 2 4C2.28267 3.99934 2.52033 4.09534 2.713 4.288C2.90567 4.48067 3.00133 4.718 3 5V14H11V8C11 7.45 11.196 6.97934 11.588 6.588C11.98 6.19667 12.4507 6.00067 13 6H19C20.1 6 21.0417 6.39167 21.825 7.175C22.6083 7.95834 23 8.9 23 10V18C23 18.2833 22.904 18.521 22.712 18.713C22.52 18.905 22.2827 19.0007 22 19C21.7173 18.9993 21.48 18.9033 21.288 18.712C21.096 18.5207 21 18.2833 21 18V16H3V18C3 18.2833 2.904 18.521 2.712 18.713C2.52 18.905 2.28267 19.0007 2 19ZM7 13C6.16667 13 5.45833 12.7083 4.875 12.125C4.29167 11.5417 4 10.8333 4 10C4 9.16667 4.29167 8.45834 4.875 7.875C5.45833 7.29167 6.16667 7 7 7C7.83333 7 8.54167 7.29167 9.125 7.875C9.70833 8.45834 10 9.16667 10 10C10 10.8333 9.70833 11.5417 9.125 12.125C8.54167 12.7083 7.83333 13 7 13ZM13 14H21V10C21 9.45 20.8043 8.97934 20.413 8.588C20.0217 8.19667 19.5507 8.00067 19 8H13V14ZM7 11C7.28333 11 7.521 10.904 7.713 10.712C7.905 10.52 8.00067 10.2827 8 10C7.99933 9.71734 7.90333 9.48 7.712 9.288C7.52067 9.096 7.28333 9 7 9C6.71667 9 6.47933 9.096 6.288 9.288C6.09667 9.48 6.00067 9.71734 6 10C5.99933 10.2827 6.09533 10.5203 6.288 10.713C6.48067 10.9057 6.718 11.0013 7 11Z" fill="#121212"/>
</svg>
