<svg width="24" height="24" viewBox="0 0 24 24" fill="none" xmlns="http://www.w3.org/2000/svg">
<path d="M22.1569 17.5397C22.6678 16.4286 22.9129 15.2138 22.8727 13.9915C22.8326 12.7692 22.5083 11.573 21.9256 10.4978C21.343 9.42262 20.5179 8.4979 19.5158 7.79693C18.5136 7.09597 17.362 6.63802 16.1522 6.4594C15.2702 4.57699 13.6796 3.1197 11.7274 2.40535C9.77516 1.69099 7.61967 1.77752 5.731 2.64607C3.84232 3.51461 2.37368 5.09471 1.64537 7.04176C0.917054 8.98882 0.988148 11.1449 1.84315 13.0397L1.2019 15.2203C1.10687 15.5435 1.10065 15.8863 1.18388 16.2126C1.26712 16.539 1.43673 16.837 1.67491 17.0751C1.91308 17.3133 2.21102 17.4829 2.5374 17.5662C2.86378 17.6494 3.20656 17.6432 3.52971 17.5481L5.71033 16.9069C6.38809 17.2175 7.10651 17.4302 7.84408 17.5388C8.7172 19.4361 10.3078 20.9092 12.2664 21.6345C14.225 22.3598 16.3914 22.278 18.2897 21.4069L20.4703 22.0481C20.7935 22.1432 21.1363 22.1494 21.4626 22.0662C21.789 21.9829 22.087 21.8133 22.3251 21.5751C22.5633 21.337 22.7329 21.039 22.8162 20.7126C22.8994 20.3863 22.8932 20.0435 22.7981 19.7203L22.1569 17.5397ZM5.81252 14.5781C5.70492 14.5781 5.59788 14.5935 5.49471 14.6241L3.55221 15.195L4.12502 13.2516C4.20717 12.9697 4.17588 12.6669 4.03783 12.4078C3.4 11.2191 3.21061 9.84079 3.5042 8.52411C3.79778 7.20742 4.55478 6.0401 5.63718 5.23496C6.71959 4.42982 8.0553 4.04049 9.40079 4.13796C10.7463 4.23543 12.0119 4.8132 12.967 5.76594C13.9221 6.71867 14.5029 7.98291 14.6037 9.32816C14.7044 10.6734 14.3183 12.0101 13.5159 13.0944C12.7134 14.1788 11.5479 14.9386 10.2319 15.2354C8.91595 15.5322 7.53715 15.3462 6.3469 14.7113C6.18255 14.6233 5.99893 14.5776 5.81252 14.5781ZM19.9585 16.9031C19.8204 17.1622 19.7891 17.465 19.8713 17.7469L20.4422 19.6903L18.5025 19.125C18.2189 19.0413 17.9138 19.0727 17.6531 19.2122C16.4437 19.8588 15.0397 20.0413 13.7051 19.7254C12.3706 19.4095 11.1974 18.6168 10.4063 17.4966C12.3608 17.1435 14.1096 16.0643 15.3015 14.4755C16.4935 12.8867 17.0405 10.906 16.8328 8.93065C17.6024 9.19575 18.3053 9.62472 18.8929 10.1879C19.4806 10.7512 19.939 11.4352 20.2365 12.1928C20.5341 12.9505 20.6636 13.7637 20.6163 14.5762C20.5689 15.3888 20.3457 16.1815 19.9622 16.8994L19.9585 16.9031Z" fill="#121212"/>
</svg>
