<svg width="24" height="24" viewBox="0 0 24 24" fill="none" xmlns="http://www.w3.org/2000/svg">
<path d="M21 20.6C20.8667 20.6 20.7417 20.575 20.625 20.525C20.5083 20.475 20.4 20.4 20.3 20.3L18 18H8C7.45 18 6.97933 17.8043 6.588 17.413C6.19667 17.0217 6.00067 16.5507 6 16V15H17C17.55 15 18.021 14.8043 18.413 14.413C18.805 14.0217 19.0007 13.5507 19 13V6H20C20.55 6 21.021 6.196 21.413 6.588C21.805 6.98 22.0007 7.45067 22 8V19.575C22 19.875 21.9 20.121 21.7 20.313C21.5 20.505 21.2667 20.6007 21 20.6ZM3 15.6C2.73333 15.6 2.5 15.5043 2.3 15.313C2.1 15.1217 2 14.8757 2 14.575V4C2 3.45 2.196 2.97933 2.588 2.588C2.98 2.19667 3.45067 2.00067 4 2H15C15.55 2 16.021 2.196 16.413 2.588C16.805 2.98 17.0007 3.45067 17 4V11C17 11.55 16.8043 12.021 16.413 12.413C16.0217 12.805 15.5507 13.0007 15 13H6L3.7 15.3C3.6 15.4 3.49167 15.475 3.375 15.525C3.25833 15.575 3.13333 15.6 3 15.6Z" fill="#5E7EF3"/>
</svg>
