<svg width="226" height="86" viewBox="0 0 226 86" fill="none" xmlns="http://www.w3.org/2000/svg">
<path fill-rule="evenodd" clip-rule="evenodd" d="M165.326 44.3972C162.48 45.3796 158.25 45.9398 153.919 45.9398H140.178C140.123 45.9398 140.078 45.895 140.078 45.8397V36.783C140.078 36.7278 140.123 36.683 140.178 36.683H162.746C162.967 36.683 163.146 36.5039 163.146 36.283V28.3892C163.146 28.1683 162.967 27.9892 162.746 27.9892H129.879C129.659 27.9892 129.479 28.1683 129.479 28.3892V54.2336C129.479 54.4545 129.659 54.6336 129.879 54.6336H153.794C158.638 54.6336 163.188 53.9846 165.959 52.8587C166.036 52.8274 166.098 52.7732 166.14 52.7058C166.257 49.9149 165.863 47.1786 165.326 44.3972ZM165.188 58.164C162.208 57.7129 158.906 57.5107 155.415 57.5107C141.824 57.5107 131.1 60.5754 131.1 69.4568C131.1 77.258 139.374 80.5714 150.597 81.2621C150.508 81.0932 150.429 80.9194 150.36 80.7417C149.667 78.9494 149.994 76.7268 151.651 75.1603C152.391 74.4605 153.163 73.7177 153.948 72.9457C147.471 72.8218 142.447 71.8438 142.447 69.4568C142.447 66.955 148.245 65.9543 155.415 65.9543C157.152 65.9543 158.808 66.013 160.321 66.1376C162.333 63.7393 163.869 61.5396 164.577 59.832C164.809 59.2712 165.012 58.7154 165.188 58.164ZM197.596 49.5069C198.195 48.4729 199.196 47.89 199.987 47.5563C200.977 47.0538 202.08 46.7977 203.293 46.7861C203.615 46.7551 203.902 46.7385 204.131 46.7316C204.256 46.7278 204.375 46.7267 204.479 46.7287L204.485 46.7288C204.534 46.7295 204.755 46.7326 204.976 46.7802C205.023 46.7902 205.103 46.8091 205.199 46.8418C205.27 46.866 205.478 46.9392 205.705 47.1011C205.878 47.2244 206.54 47.7449 206.526 48.7233C206.513 49.6632 205.881 50.1612 205.736 50.2688C205.526 50.4247 205.334 50.5005 205.265 50.5268C205.174 50.5614 205.098 50.5826 205.054 50.5943C204.963 50.6176 204.889 50.6302 204.85 50.6363C204.711 50.6584 204.563 50.6679 204.464 50.6733C204.246 50.6853 203.928 50.6933 203.499 50.6946C202.881 50.7635 202.186 50.8951 201.629 51.107C201.432 51.2179 201.241 51.3554 201.053 51.5239C201.08 51.5928 201.122 51.682 201.185 51.7929C203.876 56.4987 208.945 58.0954 212.794 55.9749C216.701 53.8226 220.527 47.1998 218.907 32.9705C217.531 20.884 209.663 12.5837 197.701 10.3009C192.057 9.22374 187.14 9.8311 182.762 11.7854C178.361 13.7503 174.387 17.1301 170.744 21.7736C166.279 27.4649 166.945 32.8917 168.267 39.3353C168.37 39.8375 168.477 40.3466 168.586 40.8622C169.853 46.8637 171.31 53.7652 168.175 61.3324C167.096 63.9354 164.806 66.9631 162.302 69.8208C159.758 72.7257 156.835 75.6302 154.323 78.0053C153.894 78.4104 153.836 78.9207 153.993 79.3267C154.141 79.7089 154.453 79.9601 154.963 79.9303C159.71 79.6533 165.886 79.0201 171.772 77.609C177.713 76.1849 183.093 74.0285 186.481 70.8747C189.914 67.6795 191.715 63.6763 193.131 59.7401C193.4 58.9919 193.668 58.2095 193.933 57.4323L193.934 57.4303L193.934 57.4294C194.334 56.2591 194.73 55.1005 195.122 54.088C195.763 52.4351 196.522 50.8022 197.596 49.5069ZM204.435 50.6383C204.436 50.6386 204.425 50.6384 204.404 50.6371C204.425 50.6375 204.434 50.6381 204.435 50.6383ZM58.9159 40.0852C58.9159 39.8643 58.7368 39.6852 58.5159 39.6852H50.8487C50.7935 39.6852 50.7487 39.6404 50.7487 39.5852V34.7816C50.7487 34.7263 50.7935 34.6816 50.8487 34.6816H57.9548C58.1757 34.6816 58.3548 34.5025 58.3548 34.2816V27.7637C58.3548 27.5428 58.1757 27.3637 57.9548 27.3637H11.4974C11.2765 27.3637 11.0974 27.5428 11.0974 27.7637V34.2816C11.0974 34.5025 11.2765 34.6816 11.4974 34.6816H18.6035C18.6587 34.6816 18.7035 34.7263 18.7035 34.7816V39.5852C18.7035 39.6404 18.6587 39.6852 18.6035 39.6852H10.9363C10.7154 39.6852 10.5363 39.8643 10.5363 40.0852V46.603C10.5363 46.8239 10.7154 47.003 10.9363 47.003H58.5159C58.7368 47.003 58.9159 46.8239 58.9159 46.603V40.0852ZM29.115 34.7816C29.115 34.7263 29.1598 34.6816 29.215 34.6816H40.2371C40.2923 34.6816 40.3371 34.7263 40.3371 34.7816V39.5852C40.3371 39.6404 40.2923 39.6852 40.2371 39.6852H29.215C29.1598 39.6852 29.115 39.6404 29.115 39.5852V34.7816ZM8.19311 49.067C7.97219 49.067 7.79311 49.2461 7.79311 49.467V56.2976C7.79311 56.5185 7.97219 56.6976 8.19311 56.6976H61.259C61.4799 56.6976 61.659 56.5185 61.659 56.2976V49.467C61.659 49.2461 61.4799 49.067 61.259 49.067H8.19311ZM21.2596 72.559C21.2596 72.5038 21.3044 72.459 21.3596 72.459H58.1418C58.3627 72.459 58.5418 72.2799 58.5418 72.059V59.1616C58.5418 58.9407 58.3627 58.7616 58.1418 58.7616H11.248C11.0271 58.7616 10.848 58.9407 10.848 59.1616V64.8037C10.848 65.0247 11.0271 65.2038 11.248 65.2038H48.1549C48.2101 65.2038 48.2549 65.2485 48.2549 65.3037V66.9176C48.2549 66.9728 48.2101 67.0176 48.1549 67.0176H11.3727C11.1518 67.0176 10.9727 67.1967 10.9727 67.4176V80.3776C10.9727 80.5985 11.1518 80.7776 11.3727 80.7776H58.7029C58.9238 80.7776 59.1029 80.5985 59.1029 80.3776V74.6728C59.1029 74.4519 58.9238 74.2729 58.7029 74.2729H21.3596C21.3044 74.2729 21.2596 74.2281 21.2596 74.1728V72.559ZM109.373 27.3637C109.152 27.3637 108.973 27.5428 108.973 27.7637V46.5277C108.973 46.583 108.929 46.6277 108.873 46.6277H101.643C101.422 46.6277 101.243 46.8068 101.243 47.0277V56.4852C101.243 56.7061 101.422 56.8852 101.643 56.8852H108.873C108.929 56.8852 108.973 56.93 108.973 56.9852V80.3776C108.973 80.5985 109.152 80.7776 109.373 80.7776H119.11C119.331 80.7776 119.51 80.5985 119.51 80.3776V27.7637C119.51 27.5428 119.331 27.3637 119.11 27.3637H109.373ZM80.4571 68.7688C80.4019 68.7688 80.3571 68.7241 80.3571 68.6688V58.111C80.3571 58.0558 80.4019 58.011 80.4571 58.011H98.2865C98.5074 58.011 98.6865 57.8319 98.6865 57.611V29.0147C98.6865 28.7937 98.5074 28.6147 98.2865 28.6147H70.1585C69.9376 28.6147 69.7585 28.7937 69.7585 29.0147V37.7216C69.7585 37.9425 69.9376 38.1216 70.1585 38.1216H88.1126C88.1678 38.1216 88.2126 38.1663 88.2126 38.2216V48.5292C88.2126 48.5844 88.1678 48.6292 88.1126 48.6292H70.2832C70.0623 48.6292 69.8832 48.8083 69.8832 49.0292V77.8758C69.8832 78.0967 70.0623 78.2758 70.2832 78.2758H89.7712C94.9524 78.2758 100.789 77.3789 104.077 75.8191C104.214 75.7542 104.298 75.6159 104.298 75.4645V66.9447C104.298 66.6553 104 66.4604 103.731 66.5674C100.441 67.8772 95.286 68.7688 90.5193 68.7688H80.4571Z" fill="#5E7EF3"/>
</svg>
